<svg width="21" height="19" viewBox="0 0 21 19" fill="none" xmlns="http://www.w3.org/2000/svg">
<path fill-rule="evenodd" clip-rule="evenodd" d="M10.3471 1.62887C11.4788 0.585911 12.9527 0 14.4912 0C16.1525 0 17.7385 0.683175 18.8997 1.88727C20.0526 3.08184 20.6944 4.69214 20.6944 6.36446C20.6944 8.03684 20.0525 9.64725 18.8997 10.8417C18.1331 11.6363 17.3677 12.449 16.5983 13.2659C15.0357 14.9252 13.4563 16.6022 11.8156 18.1822L11.8118 18.1859C10.9657 18.9887 9.62578 18.9595 8.81581 18.12L1.79415 10.8416C-0.598049 8.36189 -0.598049 4.36707 1.79415 1.88738C4.13508 -0.539171 7.90467 -0.625337 10.3471 1.62887Z" fill="#FF3333"/>
</svg>
